<svg width="16" height="17" fill="none" xmlns="http://www.w3.org/2000/svg"><path d="M16 8.188c0 2.103-.832 4.08-2.343 5.566A8.014 8.014 0 018 16.06a8.046 8.046 0 01-4.172-1.153l.917-.902A6.795 6.795 0 008 14.83c3.722 0 6.75-2.98 6.75-6.642 0-1.16-.305-2.252-.838-3.202l.917-.903A7.727 7.727 0 0116 8.188zM.91 16.033l-.883-.87 1.891-1.86A7.738 7.738 0 010 8.188C0 6.086.832 4.11 2.343 2.623A8.014 8.014 0 018 .317c1.927 0 3.75.666 5.198 1.888L15.089.344l.884.87L.911 16.033zm1.898-3.606l9.5-9.347A6.785 6.785 0 008 1.547c-3.722 0-6.75 2.98-6.75 6.641 0 1.61.586 3.088 1.558 4.24z" fill="#777"/></svg>