<svg width="21" height="18" fill="none" xmlns="http://www.w3.org/2000/svg"><path d="M16.425 6.585c-2.8 1.58-2.323 6.191.714 6.191 1.31 0 2.444-.969 2.948-2.207 1.166-2.86-1.258-5.341-3.662-3.984zm-2.875.571c3.359 0 4.365-5.613 1.173-6.535-1.454-.42-3.107.588-3.638 2.431-.596 2.066.576 4.104 2.465 4.104z" fill="#FF7236"/><path d="M12.685 17.146c-.466-.127-1.294-.208-2.16-.22-.917-.013-1.876.051-2.497.22-1.676.46-3.956-.652-3.456-2.96.463-2.134 2.126-2.012 2.52-4.035.395-2.044 1.935-3.03 3.432-2.953 1.386.072 2.734 1.054 3.101 2.954.391 2.023 2.05 1.9 2.513 4.034.502 2.31-1.783 3.416-3.453 2.96zm-5.048-9.99c.95 0 1.766-.543 2.22-1.374C11.205 3.311 8.99-.11 6.463.622c-3.197.926-2.183 6.534 1.174 6.534z" fill="#FF7236"/><path d="M6.119 10.939c1.078-2.597-1.478-5.769-3.92-4.77C-.742 7.37.555 12.554 3.79 12.554c1.038 0 1.92-.63 2.33-1.616zm6.566 6.207c-.466-.127-1.294-.208-2.16-.22V7.198c1.385.071 2.733 1.054 3.1 2.954.391 2.023 2.05 1.9 2.513 4.034.502 2.31-1.783 3.416-3.453 2.96z" fill="#FF7236"/></svg>